<!DOCTYPE svg PUBLIC "-//W3C//DTD SVG 1.1//EN" "http://www.w3.org/Graphics/SVG/1.1/DTD/svg11.dtd">
<!-- Uploaded to: SVG Repo, www.svgrepo.com, Transformed by: SVG Repo Mixer Tools -->
<svg version="1.1" id="Layer_1" xmlns="http://www.w3.org/2000/svg" xmlns:xlink="http://www.w3.org/1999/xlink" viewBox="-51.2 -51.2 614.40 614.40" xml:space="preserve" width="800px" height="800px" fill="#000000" stroke="#000000">
<g id="SVGRepo_bgCarrier" stroke-width="0" transform="translate(0,0), scale(1)"/>
<g id="SVGRepo_tracerCarrier" stroke-linecap="round" stroke-linejoin="round" stroke="#fcfcfc" stroke-width="89.088"> <g> <polygon style="fill:#2488FF;" points="512,68.267 477.867,68.267 477.867,34.133 443.733,34.133 443.733,0 307.2,0 307.2,34.133 273.067,34.133 273.067,68.267 238.933,68.267 238.933,102.4 204.8,102.4 204.8,170.667 273.067,170.667 273.067,136.533 307.2,136.533 307.2,102.4 409.6,102.4 409.6,204.8 375.467,204.8 375.467,238.933 341.333,238.933 341.333,307.2 409.6,307.2 409.6,273.067 443.733,273.067 443.733,238.933 477.867,238.933 477.867,204.8 512,204.8 "/> <polygon style="fill:#2488FF;" points="238.933,341.333 238.933,375.467 204.8,375.467 204.8,409.6 102.4,409.6 102.4,307.2 136.533,307.2 136.533,273.067 170.667,273.067 170.667,204.8 102.4,204.8 102.4,238.933 68.267,238.933 68.267,273.067 34.133,273.067 34.133,307.2 0,307.2 0,443.733 34.133,443.733 34.133,477.867 68.267,477.867 68.267,512 204.8,512 204.8,477.867 238.933,477.867 238.933,443.733 273.067,443.733 273.067,409.6 307.2,409.6 307.2,341.333 "/> </g> <rect x="307.2" width="136.533" height="34.133"/> <rect x="443.733" y="34.133" width="34.133" height="34.133"/> <rect x="477.867" y="68.267" width="34.133" height="136.533"/> <rect x="238.933" y="68.267" width="34.133" height="34.133"/> <polygon points="238.933,102.4 204.8,102.4 204.8,170.667 273.067,170.667 273.067,136.533 238.933,136.533 "/> <rect x="273.067" y="34.133" width="34.133" height="34.133"/> <rect x="409.6" y="238.933" width="34.133" height="34.133"/> <rect x="443.733" y="204.8" width="34.133" height="34.133"/> <rect x="375.467" y="204.8" width="34.133" height="34.133"/> <polygon points="375.467,238.933 341.333,238.933 341.333,307.2 409.6,307.2 409.6,273.067 375.467,273.067 "/> <rect x="409.6" y="102.4" width="34.133" height="102.4"/> <rect x="273.067" y="102.4" width="34.133" height="34.133"/> <rect x="307.2" y="68.267" width="102.4" height="34.133"/> <rect x="68.267" y="238.933" width="34.133" height="34.133"/> <rect x="34.133" y="273.067" width="34.133" height="34.133"/> <rect y="307.2" width="34.133" height="136.533"/> <rect x="34.133" y="443.733" width="34.133" height="34.133"/> <rect x="68.267" y="477.867" width="136.533" height="34.133"/> <rect x="238.933" y="409.6" width="34.133" height="34.133"/> <rect x="204.8" y="443.733" width="34.133" height="34.133"/> <polygon points="238.933,341.333 238.933,375.467 273.067,375.467 273.067,409.6 307.2,409.6 307.2,341.333 "/> <rect x="204.8" y="375.467" width="34.133" height="34.133"/> <rect x="102.4" y="409.6" width="102.4" height="34.133"/> <polygon points="136.533,273.067 170.667,273.067 170.667,204.8 102.4,204.8 102.4,238.933 136.533,238.933 "/> <rect x="102.4" y="273.067" width="34.133" height="34.133"/> <rect x="68.267" y="307.2" width="34.133" height="102.4"/> <rect x="170.667" y="307.2" width="34.133" height="34.133"/> <rect x="136.533" y="341.333" width="34.133" height="34.133"/> <rect x="238.933" y="238.933" width="34.133" height="34.133"/> <rect x="204.8" y="273.067" width="34.133" height="34.133"/> <rect x="307.2" y="170.667" width="34.133" height="34.133"/> <rect x="273.067" y="204.8" width="34.133" height="34.133"/> <rect x="341.333" y="136.533" width="34.133" height="34.133"/> </g>
<g id="SVGRepo_iconCarrier"> <g> <polygon style="fill:#2488FF;" points="512,68.267 477.867,68.267 477.867,34.133 443.733,34.133 443.733,0 307.2,0 307.2,34.133 273.067,34.133 273.067,68.267 238.933,68.267 238.933,102.4 204.8,102.4 204.8,170.667 273.067,170.667 273.067,136.533 307.2,136.533 307.2,102.4 409.6,102.4 409.6,204.8 375.467,204.8 375.467,238.933 341.333,238.933 341.333,307.2 409.6,307.2 409.6,273.067 443.733,273.067 443.733,238.933 477.867,238.933 477.867,204.8 512,204.8 "/> <polygon style="fill:#2488FF;" points="238.933,341.333 238.933,375.467 204.8,375.467 204.8,409.6 102.4,409.6 102.4,307.2 136.533,307.2 136.533,273.067 170.667,273.067 170.667,204.8 102.4,204.8 102.4,238.933 68.267,238.933 68.267,273.067 34.133,273.067 34.133,307.2 0,307.2 0,443.733 34.133,443.733 34.133,477.867 68.267,477.867 68.267,512 204.8,512 204.8,477.867 238.933,477.867 238.933,443.733 273.067,443.733 273.067,409.6 307.2,409.6 307.2,341.333 "/> </g> <rect x="307.2" width="136.533" height="34.133"/> <rect x="443.733" y="34.133" width="34.133" height="34.133"/> <rect x="477.867" y="68.267" width="34.133" height="136.533"/> <rect x="238.933" y="68.267" width="34.133" height="34.133"/> <polygon points="238.933,102.4 204.8,102.4 204.8,170.667 273.067,170.667 273.067,136.533 238.933,136.533 "/> <rect x="273.067" y="34.133" width="34.133" height="34.133"/> <rect x="409.6" y="238.933" width="34.133" height="34.133"/> <rect x="443.733" y="204.8" width="34.133" height="34.133"/> <rect x="375.467" y="204.8" width="34.133" height="34.133"/> <polygon points="375.467,238.933 341.333,238.933 341.333,307.2 409.6,307.2 409.6,273.067 375.467,273.067 "/> <rect x="409.6" y="102.4" width="34.133" height="102.4"/> <rect x="273.067" y="102.4" width="34.133" height="34.133"/> <rect x="307.2" y="68.267" width="102.4" height="34.133"/> <rect x="68.267" y="238.933" width="34.133" height="34.133"/> <rect x="34.133" y="273.067" width="34.133" height="34.133"/> <rect y="307.2" width="34.133" height="136.533"/> <rect x="34.133" y="443.733" width="34.133" height="34.133"/> <rect x="68.267" y="477.867" width="136.533" height="34.133"/> <rect x="238.933" y="409.6" width="34.133" height="34.133"/> <rect x="204.8" y="443.733" width="34.133" height="34.133"/> <polygon points="238.933,341.333 238.933,375.467 273.067,375.467 273.067,409.6 307.2,409.6 307.2,341.333 "/> <rect x="204.8" y="375.467" width="34.133" height="34.133"/> <rect x="102.4" y="409.6" width="102.4" height="34.133"/> <polygon points="136.533,273.067 170.667,273.067 170.667,204.8 102.4,204.8 102.4,238.933 136.533,238.933 "/> <rect x="102.4" y="273.067" width="34.133" height="34.133"/> <rect x="68.267" y="307.2" width="34.133" height="102.4"/> <rect x="170.667" y="307.2" width="34.133" height="34.133"/> <rect x="136.533" y="341.333" width="34.133" height="34.133"/> <rect x="238.933" y="238.933" width="34.133" height="34.133"/> <rect x="204.8" y="273.067" width="34.133" height="34.133"/> <rect x="307.2" y="170.667" width="34.133" height="34.133"/> <rect x="273.067" y="204.8" width="34.133" height="34.133"/> <rect x="341.333" y="136.533" width="34.133" height="34.133"/> </g>
</svg>